# xmcd
#
# Track frame offsets:
#	182
#	11580
#	20995
#	28277
#	35002
#	45037
#	56625
#	69787
#	78080
#	89450
#	100925
#	116567
#	127765
#	139285
#
# Disc length: 2033 seconds
#
# Revision: 0
# Processed by: cddbd v1.5.2PL0 Copyright (c) Steve Scherf et al.
# Submitted via: EasyCDDAExtractor 16.0.6.1
#
DISCID=b107ef0e
DTITLE=Άνευ ερμηνευτού - Τα καλύτερα του Γιάννη Μαρκόπουλου
DYEAR=1900
DGENRE=Ορχηστρική
TTITLE0=Ποιός πληρώνει τον βαρκάρη
TTITLE1=Γειτονοπούλα
TTITLE2=Καράβια
TTITLE3=Το κορίτσι με το κορδελάκι
TTITLE4=Το μουράγιο
TTITLE5=Μιλώ για τα παιδιά μου
TTITLE6=Εδώ στην ξένη χώρα
TTITLE7=Ζαβαρακατρανέμια
TTITLE8=Φωτιές
TTITLE9=Παραπονεμένα λόγια
TTITLE10=Η φάμπρικα
TTITLE11=Χορός με τα κομπολόγια
TTITLE12=Η μάννα του Αλέξανδρου
TTITLE13=Χασαποσέρβικο
EXTD=
EXTT0=
EXTT1=
EXTT2=
EXTT3=
EXTT4=
EXTT5=
EXTT6=
EXTT7=
EXTT8=
EXTT9=
EXTT10=
EXTT11=
EXTT12=
EXTT13=
PLAYORDER=
